<svg width="799" height="370" viewBox="0 0 799 370" fill="none" xmlns="http://www.w3.org/2000/svg">
<g clip-path="url(#clip0_515_5)">
<path d="M338.891 34.8786C341.92 34.3772 343.854 33.922 345.803 33.7878C347.541 33.6733 349.299 33.9602 351.05 33.9765C355.605 33.9909 357.136 32.3944 356.751 27.8099C356.536 25.2762 355.809 22.7573 355.552 20.2516C355.316 18.5395 355.402 16.7984 355.805 15.1179C356.662 12.1565 358.999 11.2705 361.816 12.611C363.127 13.2931 364.394 14.0578 365.608 14.9005C367.083 15.8444 368.509 16.976 370.002 17.7605C373.843 19.672 375.573 19.0966 377.365 15.2402C378.147 13.5217 378.797 11.7464 379.309 9.92951C380.045 7.40267 380.932 4.85326 383.823 4.29501C386.946 3.69815 388.748 5.93963 390.286 8.23822C391.564 10.1335 392.655 12.1697 394.101 13.923C396.415 16.7405 399.495 16.8123 402.096 14.2173C403.298 12.985 404.272 11.5012 405.447 10.2175C406.555 8.8717 407.797 7.64146 409.152 6.54561C411.851 4.60622 414.637 5.56464 415.331 8.75269C415.795 11.1248 415.978 13.5434 415.877 15.9583C415.691 23.1679 417.179 24.4828 424.408 23.4577C426.539 23.1692 428.692 23.061 430.842 23.1343C434.841 23.2414 436.716 25.8269 435.587 29.626C435.027 31.1329 434.332 32.5864 433.511 33.9689C432.947 35.0425 432.276 36.0607 431.703 37.1237C429.962 40.3618 430.536 41.7018 434.214 42.4539C436.315 42.8879 438.493 42.9853 440.631 43.271C441.697 43.3849 442.752 43.5842 443.786 43.8671C446.864 44.7999 448.183 47.2779 446.623 50.0745C445.515 51.8817 444.032 53.4302 442.274 54.6157C436.712 58.5865 436.559 59.8705 441.469 64.8585C443.166 66.5842 444.716 68.4528 446.436 70.1096C447.992 71.6481 448.998 73.3798 448.272 75.5266C447.887 76.6147 447.205 77.5729 446.302 78.2914C445.399 79.01 444.312 79.46 443.165 79.5899C441.458 79.8962 439.672 79.7781 437.93 79.9625C436.401 80.1273 434.903 80.4439 432.884 80.7849C434.062 84.4975 435.23 87.6288 436.022 90.8517C436.589 93.0375 436.815 95.2979 436.692 97.5529C436.682 98.2327 436.526 98.9024 436.237 99.5175C435.947 100.133 435.53 100.679 435.013 101.121C434.496 101.562 433.891 101.888 433.238 102.078C432.585 102.267 431.899 102.315 431.226 102.219C428.684 101.975 426.168 101.516 423.704 100.847C420.053 99.9661 418.335 100.913 417.699 104.656C417.378 106.502 417.434 108.417 417.251 110.291C416.761 115.162 412.896 117.385 408.671 114.964C406.247 113.552 404.14 111.616 401.827 110C397.724 107.125 396.551 107.357 393.644 111.479C392.094 113.675 390.665 115.858 387.919 116.924C386.883 117.431 385.704 117.57 384.578 117.316C383.453 117.062 382.448 116.431 381.73 115.527C380.211 113.648 378.797 111.686 377.494 109.651C375.074 106.148 374.285 105.909 370.576 107.818C368.163 109.051 365.753 110.203 362.9 109.792C359.808 109.349 358.187 108.118 357.695 105.09C357.338 102.726 357.168 100.337 357.186 97.9465C357.175 92.4993 355.698 90.9747 350.257 91.0568C348.652 91.1916 347.037 91.1924 345.432 91.059C342.092 90.5639 340.756 88.6257 341.709 85.3287C342.297 83.5529 343.163 81.8821 344.276 80.3791C347.287 75.9721 347.076 74.1695 342.797 70.9849C341.735 70.1916 340.492 69.6196 339.377 68.8838C337.869 67.9828 336.44 66.9578 335.102 65.8195C332.959 63.8015 333.164 61.8792 335.593 60.1368C336.83 59.3187 338.114 58.573 339.438 57.9035C340.611 57.2605 341.84 56.7004 343.002 56.0769C348.151 53.177 348.739 50.5928 345.41 45.6228C344.48 44.1752 343.233 42.8722 342.335 41.3762C341.242 39.5901 340.365 37.6846 338.891 34.8786ZM445.084 49.0074C443.779 46.4499 441.828 46.0133 439.789 45.7425C437.643 45.6145 435.505 45.3654 433.388 44.9962C428.373 43.7477 427.137 40.3927 429.827 35.9799C431.193 33.9835 432.367 31.8624 433.334 29.645C434.566 26.3917 433.058 24.6753 429.667 25.0187C427.393 25.2569 425.125 25.5556 422.85 25.8038C416.678 26.5006 413.804 23.8858 413.794 17.5877C413.951 15.9791 413.987 14.3611 413.903 12.7472C413.663 11.1034 413.361 8.71557 412.269 8.12104C410.32 7.02373 409.017 9.29227 407.781 10.603C406.133 12.3539 404.777 14.4597 403.026 16.0654C399.5 19.3556 395.158 18.8712 392.215 15.0015C391.067 13.5131 390.147 11.8658 389.072 10.3309C388.364 9.19696 387.529 8.14796 386.583 7.20451C384.963 5.73294 383.342 6.12355 382.314 8.0753C381.836 9.18582 381.419 10.3217 381.065 11.4779C380.399 13.5185 379.599 15.5126 378.668 17.4471C376.897 20.6737 374.305 21.6772 370.848 20.3152C368.669 19.286 366.569 18.0982 364.565 16.7614L359.627 13.9647C358.675 14.5135 357.936 15.3682 357.532 16.3897C357.127 17.4113 357.079 18.5398 357.397 19.5917C357.914 22.0902 358.594 24.5567 358.95 27.0773C359.759 32.8041 357.256 35.8445 351.544 36.1435C349.396 36.2578 347.237 35.9911 345.073 36.0145C344.044 36.1387 343.029 36.3533 342.038 36.6558C342.83 38.0565 343.348 39.1133 344.001 40.0767C345.279 41.9819 346.825 43.7302 347.939 45.7075C350.706 50.5096 349.86 54.0523 345.274 57.11C343.72 58.1548 341.934 58.8576 340.332 59.8699C338.73 60.8822 337.418 61.8989 335.282 63.4054C337.245 64.1931 338.348 64.5579 339.405 65.0506C342.048 65.9914 344.619 67.1221 347.098 68.4337C350.988 70.7681 351.512 74.3483 348.963 78.1173C348.208 79.2214 347.268 80.2063 346.562 81.3429C345.071 83.7524 345.571 85.399 348.203 86.4299C349.715 86.9898 351.277 87.4022 352.868 87.6613C358.824 88.6959 360.766 90.9343 360.611 96.914C360.585 97.4533 360.558 97.9927 360.532 98.532C360.39 105.053 361.401 105.874 367.769 104.456C373.843 103.103 376.669 104.264 380.026 109.476C380.901 110.984 381.888 112.425 382.977 113.786C384.628 115.65 386.425 115.749 388.297 114.129C389.424 113.109 390.399 111.934 391.193 110.637C395.324 104.223 400.751 104.821 405.268 109.459C406.387 110.631 407.648 111.658 409.022 112.518C411.286 113.911 412.872 113.208 413.46 110.634C413.862 108.791 414.172 106.928 414.386 105.053C415.093 99.8416 416.828 98.165 421.973 98.1885C424.796 98.1976 427.609 98.6167 430.428 98.7157C434.506 98.8567 435.262 97.7226 433.74 93.873C433.402 93.0053 432.891 92.2091 432.482 91.3679C431.698 89.8074 430.965 88.2194 430.15 86.6774C427.753 82.1037 432.998 74.613 438.374 76.2499C439.023 76.4243 439.694 76.5013 440.365 76.4782C442.177 76.4775 444.458 77.3309 445.325 74.9807C446.192 72.6306 444.508 71.236 442.904 69.8553C440.984 68.1986 438.855 66.7019 437.03 64.9199C434.376 62.306 434.314 59.089 436.737 56.2649C437.889 55.1479 439.115 54.1079 440.404 53.1518C442.004 51.779 443.556 50.3637 445.084 49.0074ZM347.181 88.8826L343.441 85.344C343.441 88.1775 344.462 88.7985 347.181 88.8826Z" fill="white"/>
<path d="M482.093 123.231C473.16 121.649 464.258 120.859 454.681 122.179C453.498 130.741 454.767 139.524 454.005 148.678C452.087 146.961 450.052 145.589 448.57 143.774C441.789 135.781 434.465 128.265 426.652 121.277C424.566 119.197 422.841 116.784 421.547 114.137C420.034 111.329 420.946 109.482 424.131 108.848C426.497 108.457 428.904 108.377 431.291 108.61C433.419 108.715 435.508 109.399 437.634 109.734C441.906 110.405 444.32 108.762 444.253 104.424C444.187 100.085 443.265 95.6444 442.741 91.2433C442.559 89.8818 442.613 88.4991 442.902 87.1563C450.141 92.4393 456.244 98.8277 462.818 104.589C469.392 110.349 475.964 116.351 482.533 122.231L482.093 123.231ZM452.536 120.411C460.351 118.864 467.822 119.653 476.255 119.999C474.356 117.903 473.307 116.43 471.975 115.223C463.387 107.457 454.757 99.7422 446.084 92.079C445.883 91.8889 445.469 91.9486 444.894 91.8401C445.074 92.8502 445.246 93.6396 445.347 94.4256C445.922 97.5895 446.309 100.785 446.507 103.994C446.559 109.644 443.327 112.438 437.75 111.842C435.479 111.6 433.257 110.97 431.002 110.619C428.25 110.182 425.458 109.744 422.644 112.209C424.06 114.151 425.151 116.187 426.728 117.707C433.006 123.783 439.421 129.716 445.806 135.668C447.721 137.445 449.638 139.171 452.168 141.459C452.1 137.17 451.974 133.83 452.028 130.498C452.082 127.167 452.369 123.797 452.536 120.411Z" fill="white"/>
<path d="M335.373 131.182C331.018 130.968 327.137 130.696 323.257 130.585C319.378 130.473 315.749 129.363 311.582 131.01C312.265 127.93 314.257 126.306 316.022 124.631C317.958 122.724 320.27 121.316 322.175 119.438C326.849 114.803 331.322 109.987 335.977 105.331C339.01 102.296 342.102 99.2951 345.422 96.5353C347.991 94.3793 349.695 94.3432 352.471 95.7016C350.808 100.395 350.787 105.29 351.304 110.232C351.875 115.707 353.769 117.302 359.209 116.629C362.233 116.217 365.268 115.576 368.296 115.075C369.437 114.891 370.591 114.827 371.678 114.721C372.578 116.768 371.421 117.902 370.468 118.956C366.442 123.644 362.426 128.332 358.247 132.881C352.533 139.117 346.675 145.216 340.884 151.388C339.636 152.851 338.227 154.168 336.685 155.316C333.946 147.322 335.364 139.472 335.373 131.182ZM337.74 150.773C342.534 147.765 366.774 121.167 367.941 117.6C364.718 117.992 361.547 118.556 358.365 118.72C352.061 119.04 349.508 116.611 349.233 110.2C349.105 107.11 349.198 104.02 349.14 100.934C349.073 100.067 348.955 99.2057 348.786 98.3533C348.184 98.5839 347.882 98.619 347.703 98.7904C339.005 107.205 330.326 115.638 321.666 124.088C320.505 125.476 319.458 126.954 318.534 128.509L337.591 129.449C337.938 136.826 336.163 143.787 337.74 150.773Z" fill="white"/>
<path d="M389.07 31.877C390.829 31.7335 392.413 31.5012 393.994 31.5191C395.548 31.6212 397.096 31.8011 398.633 32.0583C399.767 38.7023 399.145 45.8203 399.507 52.8967C399.838 59.728 400.211 66.5613 400.629 73.3969C400.765 74.1444 401.002 74.87 401.333 75.5542C403.862 75.8491 406.26 75.9474 408.578 76.4422C409.447 76.667 410.262 77.0639 410.975 77.6094C411.688 78.1548 412.284 78.8377 412.728 79.6177C413.172 80.3977 413.456 81.2588 413.561 82.1502C413.666 83.0415 413.592 83.945 413.342 84.807C412.977 85.4822 412.378 86.0009 411.658 86.2659C411.013 86.495 410.323 86.5673 409.645 86.4769C399.236 86.0036 388.799 85.4887 377.932 84.9527C377.31 82.5292 376.663 80.0243 375.984 77.3575C380.444 74.4037 385.262 76.814 390.365 76.0645C391.474 63.9344 389.456 51.6501 390.25 39.2041C389.462 40.1664 388.66 41.1982 387.88 42.2009C385.517 45.192 382.105 47.1716 378.336 47.7374C377.729 47.8477 377.002 47.3713 375.374 46.8805C379.468 45.08 382.984 44.4424 385.524 41.6542C388.064 38.866 388.876 35.602 389.07 31.877ZM395.205 35.1833C395.179 35.6926 395.015 36.1751 394.979 36.714C394.617 42.6333 394.205 48.5502 393.933 54.474C393.621 60.7963 393.459 67.126 393.276 73.4647C393.208 74.8431 393.133 76.3612 395.297 77.5692C395.089 63.1114 396.913 49.2545 395.207 35.1433L395.205 35.1833ZM379.272 82.5358C385.391 83.939 395.772 84.1607 397.922 82.9952C393.019 80.9111 392.858 80.9232 385.481 82.3114C384.905 82.4132 384.226 81.9792 383.594 81.7979L383.546 80.9445L389.094 79.0855L389 78.5603L379.492 78.0913L379.272 82.5358ZM409.281 83.0949L402.911 80.7182C403.555 81.6611 404.784 81.9219 405.199 82.6432C406.71 85.2909 408.905 84.428 411.025 84.2723C411.412 80.2865 411.347 80.1832 408.281 79.0207C408.57 80.2664 408.829 81.3005 409.291 83.0954L409.281 83.0949ZM397.916 71.3508C397.58 73.0963 396.737 74.9471 397.933 77.3088C399.508 75.0036 398.397 73.1766 397.916 71.3508Z" fill="white"/>
</g>
<g clip-path="url(#clip1_515_5)">
<path d="M68.3019 240.797C70.7106 234.351 75.2046 229.319 79.3417 224.105C88.8427 212.149 100.719 203.067 113.799 195.583C129.032 186.9 145.581 182.143 162.653 179.142C166.333 178.492 170.114 178.378 173.805 178.001C177.496 177.625 180.863 176.678 183.596 173.928C184.214 173.265 184.979 172.764 185.826 172.468C186.874 172.16 188.469 171.704 189.026 172.228C190.02 173.28 190.674 174.618 190.9 176.062C190.928 177.143 190.594 178.202 189.952 179.062C185.826 185.543 185.491 193.027 184.889 200.306C183.871 211.461 181.123 222.379 176.749 232.651C170.16 248.532 160.59 262.936 148.58 275.047C141.622 282.143 133.66 288.247 126.01 294.602C124.259 296.039 123.323 297.477 123.78 299.633C126.255 311.784 121.616 321.812 114.993 331.35C110.164 338.31 103.908 343.832 98.0091 349.719C94.4629 353.256 90.928 356.804 87.3372 360.307C86.5347 360.916 85.6756 361.443 84.7724 361.881C85.4192 356.952 86.3225 352.674 86.4563 348.361C86.4684 343.768 86.2189 339.177 85.7092 334.613C85.3412 330.244 84.7947 325.885 84.2929 321.219L71.5135 326.376C68.1681 324.391 64.9342 322.759 62.0126 320.671C56.3254 316.598 51.0954 312.001 47.2594 305.954C45.2967 302.862 43.2003 299.85 40.97 296.952C40.4305 296.423 40.0867 295.719 39.9973 294.96C39.9078 294.2 40.0782 293.433 40.4794 292.788C41.929 290.129 43.3452 287.437 45.0849 284.185C32.6065 282.212 20.5519 281.835 8.41927 285.326C7.61638 282.098 9.13296 279.975 10.3931 278.093C13.3034 273.618 16.4723 269.324 19.8828 265.235C26.5736 257.465 34.0785 250.654 43.178 245.84C48.69 242.989 54.7372 241.386 60.9086 241.139C63.4622 241.025 65.9936 240.728 68.5361 240.523C68.0231 241.31 67.6551 242.588 66.9638 242.805C65.381 243.273 63.7378 243.492 62.0906 243.455C55.1457 243.538 48.3452 245.494 42.3751 249.125C32.8741 254.545 25.2801 262.132 18.4666 270.574C15.6676 273.997 12.7794 277.511 11.0064 281.983C23.652 279.405 35.9408 279.85 48.7982 282.371L42.3751 294.009C49.0075 306.776 59.0921 317.319 71.4243 324.379C76.119 322.657 80.1781 319.382 85.5753 318.207C88.1252 330.176 89.2744 342.412 88.9988 354.659C96.2812 348.191 103.227 341.336 109.807 334.123C115.762 327.357 120.535 319.622 121.672 310.255C122.114 306.611 122.245 302.935 122.062 299.268C121.895 295.845 123.178 293.678 125.921 291.658C147.03 275.959 164.192 256.861 174.507 231.932C178.622 221.983 181.834 211.863 182.492 200.956C182.982 192.845 183.863 184.744 188.067 177.488C188.513 176.712 188.424 175.605 188.669 174.065C187.264 174.601 186.25 174.681 185.725 175.206C181.767 179.416 176.693 180.454 171.374 180.751C162.836 181.293 154.382 182.785 146.161 185.2C132.779 188.988 119.966 193.997 108.246 201.721C94.618 210.491 82.8602 221.985 73.6769 235.514C72.2718 237.557 70.1084 239.051 68.3019 240.797Z" fill="white"/>
<path d="M15.2439 326.695L1.86227 329.639C4.57717 323.957 8.40738 318.908 13.114 314.807C15.129 312.979 17.3804 311.443 19.8048 310.243C27.1535 306.741 34.19 308.247 40.7358 312.525C47.7803 317.255 53.7475 323.481 58.2323 330.78C58.4264 331.182 58.6579 331.564 58.9236 331.921C62.9047 335.651 61.6892 339.781 60.0388 344.083C56.7603 352.263 44.8395 363.786 34.7699 365.132C36.6108 362.959 38.3202 360.673 39.8883 358.287C41.2661 355.718 42.287 352.964 42.9215 350.107C29.6179 358.492 16.2809 366.41 0 369C0.691383 361.071 3.08892 354.02 5.68718 347.174C8.28544 340.329 11.9542 333.655 15.2439 326.695ZM43.8024 358.869C44.929 358.171 46.0161 357.41 47.0586 356.587C52.467 351.864 57.3513 346.775 59.024 339.279C59.3244 338.175 59.3491 337.012 59.0958 335.896C58.8425 334.779 58.3194 333.746 57.5743 332.89C55.008 329.492 52.2449 326.253 49.3 323.193C45.519 319.497 41.4128 316.167 37.0336 313.244C34.7196 311.766 32.0873 310.889 29.3661 310.69C26.645 310.491 23.9176 310.976 21.4217 312.103C15.1658 314.75 10.8279 319.804 7.1034 325.36L7.54945 326.284L24.1761 320.797C12.1773 334.122 6.07748 349.068 2.87704 366.113C18.8681 362.508 31.9709 354.419 44.8507 345.03C46.2334 350.152 44.2596 354.214 43.8024 358.869Z" fill="white"/>
<path d="M143.718 233.791C137.842 233.791 132.69 229.41 131.931 223.843C131.218 218.526 135.7 211.099 140.607 209.65C142.042 209.183 143.575 209.127 145.039 209.487C146.503 209.847 147.843 210.609 148.915 211.692C149.914 212.726 151.136 213.508 152.483 213.974C155.26 214.909 156.085 217.876 156.219 220.717C156.52 227.311 150.242 233.814 143.718 233.791ZM154.033 221.059C154.033 215.902 147.443 211.772 142.96 211.818C138.711 211.818 134.373 217.317 134.34 222.474C134.34 227.334 138.656 231.418 143.83 231.373C149.004 231.327 154.134 225.988 154.033 221.059Z" fill="white"/>
</g>
<g clip-path="url(#clip2_515_5)">
<path d="M757.89 332.28C758.53 333.4 757.89 333.67 756.89 333.71L743.18 334.37C741.972 334.308 740.762 334.379 739.57 334.58C739.03 334.72 738.74 335.76 737.94 337.01C744.542 336.429 751.193 336.895 757.65 338.39C758.19 343.16 758.71 347.8 759.28 352.8C760.59 352.91 762.02 353 763.44 353.13C765.065 353.247 766.605 353.899 767.819 354.985C769.033 356.071 769.853 357.528 770.15 359.13C770.74 362.7 769.35 365.55 765.61 366.63C762.135 367.512 758.581 368.048 755 368.23C751.008 368.551 747.002 368.648 743 368.52C740.593 368.505 738.206 368.082 735.94 367.27C731.67 365.59 730.68 360.73 733.94 357.44C735.57 355.8 737.84 354.8 739.94 353.44L737.24 352.44C739.67 350.5 742 351.52 744.11 351.33C746.22 351.14 748.42 351.26 750.58 351.26H757.79L755.41 338.7C749.88 340.04 744.41 337.52 739.12 339.4C737.66 343.03 739.74 346.96 737.33 350.21C735.9 342.4 737.18 334.57 736.82 326.76C736.46 318.95 736.74 311.22 736.74 303.23C729.35 302.94 721.74 302.69 714.08 302.33C706.42 301.97 698.77 303.11 691.08 301.45C689.55 291.02 690.73 280.78 690.08 270.26L674.3 269.62C674.15 267.82 673.9 266.14 673.89 264.45C673.89 255.82 673.89 247.19 673.89 238.57C673.89 236.85 673.7 235.14 673.57 232.93C678.57 231.24 683.79 232.29 688.89 233.11C688.72 235.11 688.45 236.92 688.43 238.72C688.35 246.53 688.36 254.35 688.3 262.17C688.3 264.17 688.1 266.17 687.99 268.17C688.88 268.84 689.73 269.07 690.14 267.73C690.291 267.075 690.341 266.401 690.29 265.73V235.45C691.184 235.271 692.089 235.157 693 235.11C705.13 235.19 717.26 235.45 729.39 235.39C739.62 235.39 749.85 234.92 760.08 234.69C764.49 234.6 768.99 233.6 773.16 235.94C773.38 236.07 773.57 236.26 773.85 236.47V303.65H758.93C758.75 304.594 758.637 305.55 758.59 306.51C758.7 313.79 758.92 321.06 758.94 328.33C758.94 329.69 758.19 331.04 757.79 332.39C757.196 323.363 756.61 314.363 756.03 305.39H739.1C738.31 310.39 738.51 329.34 739.4 332.3L757.89 332.28ZM692.43 300C705.75 300.29 718.91 300.57 732.06 300.87L772.06 301.77V295.3C772.06 277.247 772.06 259.193 772.06 241.14C772.06 239.47 771.86 237.79 771.76 236.23C767.91 236.42 764.56 236.66 761.2 236.76C750.97 237.05 740.75 237.48 730.52 237.52C718.94 237.52 707.36 237.22 695.79 237.09C694.657 237.171 693.533 237.348 692.43 237.62V300ZM754.92 355.16V354.92C753.04 354.92 751.15 354.82 749.27 354.92C745.27 355.2 741.2 355.35 737.48 357.2C736.471 357.594 735.617 358.306 735.047 359.228C734.477 360.149 734.222 361.231 734.32 362.31C734.48 364.31 735.77 365.47 738.44 366.06C739.092 366.243 739.763 366.348 740.44 366.37C747.53 366.23 754.62 366.12 761.71 365.85C763.044 365.689 764.337 365.279 765.52 364.64C766.119 364.411 766.661 364.054 767.109 363.595C767.557 363.136 767.9 362.585 768.114 361.98C768.328 361.375 768.408 360.731 768.348 360.092C768.289 359.453 768.092 358.835 767.77 358.28C767.42 357.394 766.822 356.629 766.046 356.077C765.27 355.525 764.351 355.21 763.4 355.17C760.57 355 757.74 355.12 754.92 355.12V355.16ZM685.92 268.16V234.64H676V267.54L685.92 268.16Z" fill="white"/>
<path d="M728.47 352.35L725.59 352.86C728.48 354.33 730.33 356.15 731.03 358.96C732.11 363.27 730.49 366.5 726.26 367.77C724.45 368.28 722.581 368.552 720.7 368.58C717.33 368.71 713.96 368.53 710.59 368.64C707.66 368.73 704.71 368.92 701.8 369.3C695.05 370.18 691.21 365.89 692.92 359.3C693.192 358.11 693.789 357.02 694.646 356.151C695.503 355.282 696.584 354.669 697.77 354.38C700.32 353.66 703 353.38 706.07 352.84V345.4C706.07 343.4 706.01 341.4 706.13 339.34C706.31 336.51 706.76 336.01 709.5 336.02C713.94 336.02 718.38 336.23 722.82 336.32C724.18 336.32 725.74 337.05 727.07 334.84H706.22V304.5C713.75 304.71 721 303.61 728.22 305.5C728.389 306.187 728.509 306.886 728.58 307.59C728.69 314.44 728.84 321.29 728.82 328.14C728.71 330.267 728.466 332.384 728.09 334.48C727.972 334.997 727.892 335.521 727.85 336.05C728.05 341.42 728.26 346.77 728.47 352.35ZM708.3 306.64V332.72H727.06C726.75 323.82 726.45 315.19 726.15 306.64H708.3ZM715.17 366.36V366.75C718.39 366.51 721.63 366.4 724.82 365.98C726.82 365.71 728.72 364.84 729.17 362.41C729.84 358.78 727.98 356.01 724.33 355.41C722.878 355.116 721.401 354.966 719.92 354.96C713.72 355.12 707.53 355.36 701.34 355.64C700.402 355.729 699.484 355.966 698.62 356.34C695.24 357.63 694.12 359.69 694.75 363.34C695.27 366.34 696.75 367.4 700.67 367.25C705.52 367 710.35 366.64 715.17 366.36ZM726.26 338.26H708.26C708.07 342.43 707.89 346.38 707.68 350.78H726.26V338.26Z" fill="white"/>
<path d="M678.79 330.17C678.6 332.07 678.42 333.89 678.26 335.59C672.63 337 665.64 331.29 666 324C666.33 317.71 668.22 311.8 674 308.37V271.77C678.202 271.433 682.426 271.48 686.62 271.91C687.718 282.365 687.594 292.913 686.25 303.34C684.33 293.49 685.82 283.45 684.92 273.45H675.92C675.14 283.96 676.14 294.27 675.26 304.92C676.67 305.04 677.82 305.19 678.97 305.24C681.12 305.34 683.29 305.24 685.43 305.5C686.43 305.6 687.98 305.38 687.6 307.5C687.52 307.97 689.11 308.74 689.93 309.37C694.93 313.22 697.2 318.37 696.39 324.57C695.66 330.22 691.89 333.74 686.71 336.69C685.9 334.14 685.23 332.03 684.51 329.78C687.51 327.4 690.08 324.78 689.73 320.78C689.715 319.677 689.463 318.591 688.992 317.594C688.521 316.597 687.842 315.712 687 315C683.53 312.26 676.51 313.36 673.92 317.12C671.06 321.34 673 326.86 678.79 330.17ZM676 334.22C676.47 331.79 676.47 331.79 674.66 330.22C668.31 324.65 669.5 315.11 677.05 312.54C679.464 311.816 682.007 311.632 684.5 312C688.68 312.53 691.31 315.83 691.66 320C691.885 321.678 691.689 323.385 691.091 324.968C690.492 326.551 689.509 327.961 688.23 329.07C686.78 330.35 686.33 331.64 688.23 332.9C694.63 328.63 696.23 322.17 692.62 315.39C691.088 312.584 688.575 310.442 685.563 309.372C682.55 308.302 679.249 308.38 676.29 309.59C670.29 312.16 668.57 317.59 668.11 323.4C667.7 328.71 670.66 332.24 676 334.22Z" fill="white"/>
<path d="M788.81 336.14C785.81 331.43 786.09 329.14 789.87 326.05C790.707 325.479 791.34 324.657 791.678 323.702C792.016 322.748 792.041 321.71 791.75 320.74C790.88 317.52 789.15 315.12 785.69 314.46C779.63 313.31 774.49 320.05 775.18 324.94C775.52 327.34 776.81 328.43 780.8 329.8V335.8C776.44 336.47 772.61 333.66 770.23 328.22C766.77 320.32 768.51 314.3 776.23 307.9V271.65C781.23 271.65 785.88 271.01 790.41 272.24C790.41 282.59 790.41 292.53 790.41 302.46C790.248 303.152 790.006 303.823 789.69 304.46C788 300.69 788.75 297.36 788.63 294.14C788.51 290.92 788.63 287.41 788.63 284.05V273.84H778.18V306.52C780.072 306.629 781.968 306.629 783.86 306.52C788.07 306.05 791.12 307.52 793.76 310.91C798.02 316.31 799.6 322.05 797 328.56C796.291 330.357 795.186 331.971 793.769 333.283C792.351 334.595 790.656 335.572 788.81 336.14ZM789.81 333.3C792.431 331.823 794.439 329.461 795.477 326.637C796.514 323.813 796.511 320.712 795.47 317.89C793.42 311.7 788.36 308.29 781.93 308.77C776.46 309.18 771.58 313.62 770.85 318.85C770.12 324.08 772.05 331.44 778.75 334.34C779.25 332.75 779.13 331.54 777.32 330.75C776.241 330.352 775.289 329.67 774.565 328.776C773.842 327.882 773.374 326.809 773.21 325.67C772.21 319.01 778.01 311.45 785.81 312.5C789.81 313.04 792.03 315.5 793.31 319C794.66 322.67 793.88 325.4 790.68 327.87C788.71 329.42 788.39 331 789.86 333.3H789.81Z" fill="white"/>
<path d="M765.19 184.25C743.403 184.05 721.62 183.847 699.84 183.64C699.68 183.64 699.54 183.24 699.25 182.82C701.31 181 703.78 182.14 706 181.94C708.22 181.74 710.55 181.94 713.31 181.94V173.12L719 172.39V181.71C727.16 182.39 735 182.01 743.08 182.06C742.83 178.71 742.62 175.83 742.41 172.98C744.65 171.39 746.71 172.07 749.31 172.67C749.59 175.72 749.87 178.86 750.2 182.51C753.84 182.51 757.44 182.51 761.03 182.51C762.58 182.51 764.39 182.25 765.03 184.34L765.19 184.25ZM748.85 182.25C748.58 180.74 748.38 179.46 748.12 178.19C747.86 176.92 747.52 175.66 747.25 174.49C745.38 173.93 744.4 174.49 744.6 176.29C744.83 178.34 745.24 180.36 745.6 182.51L748.85 182.25ZM716.45 174.39C714.8 176.55 715.45 178.68 715.69 180.7C715.69 181.12 716.46 181.48 717.21 182.19C717.93 179.24 717.88 176.92 716.45 174.39Z" fill="white"/>
<path d="M765.05 184.37C766.34 184.04 767.21 184.37 767.14 185.87C767.05 187.75 766.73 189.63 766.75 191.51C766.88 202.67 767.08 213.84 767.28 225.01C767.344 225.649 767.464 226.282 767.64 226.9C759.64 230.9 705.82 233.18 698.21 229.9C698.77 228.26 700.12 228.8 701.21 228.82C709.82 228.94 718.42 229.21 727.03 229.21C739.98 229.1 752.905 228.074 765.71 226.14C764.9 212.08 763.71 198.14 765.17 184.26L765.05 184.37Z" fill="white"/>
<path d="M755.84 214.66C755.97 217.03 756.06 218.84 756.15 220.48H726.83C722.66 220.48 718.48 220.53 714.31 220.48C711.8 220.48 711.21 219.76 711.21 217.39C711.21 215.02 711.91 214.26 714.34 214.18C717.84 214.06 721.34 214.18 724.84 214.18C732.78 214.18 740.72 214.18 748.66 214.18C750.93 214.16 753.19 214.46 755.84 214.66ZM753.9 218.28C754.23 216.36 753.19 215.85 751.35 215.85C739.51 215.91 727.67 215.85 715.83 215.93C715.168 215.904 714.509 216.038 713.91 216.32C713.59 216.51 713.53 217.19 713.11 218.32L753.9 218.28Z" fill="white"/>
<path d="M777.57 268.71L791.12 269.36C787.98 270.96 783.43 271.2 776.85 270.36C776.577 269.259 776.387 268.139 776.28 267.01C775.95 256.79 775.68 246.57 775.4 236.36C775.4 235.95 775.4 235.55 775.4 235.14C775.52 232.14 775.94 231.46 778.87 231.47C782.74 231.47 786.61 231.83 790.3 232.03C791.55 235.85 791.48 263.75 790.36 267.17C790.237 267.221 790.103 267.245 789.97 267.24C789.917 267.215 789.87 267.179 789.832 267.134C789.794 267.089 789.766 267.037 789.75 266.98C789.653 266.729 789.586 266.467 789.55 266.2C789.55 265.8 789.55 265.4 789.55 265C789.483 254.767 789.41 244.537 789.33 234.31C789.33 234.21 789.18 234.1 788.93 233.74H777.66C776.71 245.36 778.63 256.85 777.57 268.71Z" fill="white"/>
<path d="M698.85 185.09C698.39 198.57 697.933 212.053 697.48 225.54C695.9 225.94 695.73 225 695.74 224.02C695.82 216.23 695.81 208.43 696.07 200.64C696.22 196.22 696.78 191.82 697.23 187.41C697.417 186.58 697.692 185.772 698.05 185L698.85 185.09Z" fill="white"/>
<path d="M752.05 191.51C750.17 191.72 748.76 191.79 747.39 192.04C743.54 192.77 741.59 195.67 742.65 199.04C743.37 201.3 745 202.4 747.57 202.36C750.48 202.31 753.57 200.69 753.57 198.6C753.57 196.93 752.57 195.24 752 193.67C754.79 193.75 756.58 196.83 755.33 199.98C754.18 202.87 749.33 205.1 745.73 204.41C742.61 203.82 740.14 200.35 740.38 196.82C740.441 195.533 740.871 194.292 741.62 193.244C742.368 192.196 743.403 191.385 744.6 190.91C747.48 189.52 749.35 189.58 752.05 191.51Z" fill="white"/>
<path d="M718.16 191.94C716.72 191.94 715.73 191.86 714.77 191.94C713.28 192.055 711.894 192.746 710.904 193.866C709.915 194.986 709.401 196.447 709.47 197.94C709.515 199.228 710.051 200.451 710.967 201.358C711.883 202.265 713.111 202.788 714.4 202.82C717.2 202.91 720.63 200.48 720.53 198.07C720.47 196.59 719.46 195.14 718.9 193.72C719.521 193.812 720.114 194.038 720.639 194.382C721.164 194.726 721.608 195.18 721.94 195.713C722.272 196.246 722.484 196.844 722.562 197.467C722.64 198.09 722.581 198.722 722.39 199.32C721.47 202.69 717.14 205.41 713.56 204.88C711.836 204.541 710.284 203.611 709.171 202.252C708.057 200.892 707.453 199.187 707.46 197.43C707.581 195.538 708.355 193.747 709.65 192.362C710.945 190.978 712.68 190.086 714.56 189.84C715.31 189.719 716.08 189.862 716.736 190.245C717.393 190.628 717.896 191.227 718.16 191.94Z" fill="white"/>
<path d="M757.44 282.88H738.68C739.49 279.75 742.44 278.32 744.33 276.08C746.22 273.84 748.33 271.72 748.98 268.91C747.84 266.84 746.3 267.12 745.1 268.11C742.008 270.45 739.124 273.053 736.48 275.89C729.28 284.33 729.57 283.45 720.43 283.13C716.27 282.99 712.1 282.81 707.95 282.46C705.12 282.22 704.66 281.73 704.63 278.98C704.55 272.39 704.52 265.79 704.63 259.2C704.71 255.2 706.18 254.08 710.27 253.41C715.92 252.49 721.51 253.08 727.15 253.41C734.4 253.76 741.68 253.57 748.95 253.63C750.95 253.63 752.95 253.63 754.95 253.79C757.75 253.95 758.39 254.29 758.48 257.05C758.64 262.42 758.48 267.79 758.33 273.16C758.28 276.29 757.79 279.46 757.44 282.88ZM755.44 280.49C755.85 272.05 758.44 264.05 755.94 255.39C754.47 255.39 753.02 255.39 751.57 255.39C742.68 255.31 733.78 255.19 724.89 255.15C720.34 255.15 715.78 255.09 711.23 255.34C707.23 255.56 706.5 256.46 706.4 260.6C706.29 265.45 706.23 270.29 706.27 275.14C706.27 277.14 706.6 279.04 706.8 281.21H726.65C728.75 281.21 730.13 280.06 731.41 278.59C733.52 276.14 735.54 273.59 737.86 271.37C739.873 269.406 742.085 267.656 744.46 266.15C746.61 264.81 748.79 265.15 749.99 266.56C751.19 267.97 751.21 270.35 749.9 272.24C748.59 274.13 746.84 275.97 745.32 277.84C744.71 278.59 744.19 279.4 743.41 280.49H755.44Z" fill="white"/>
</g>
<path d="M249.015 174.592H294.135V183.52H258.327V204.64H290.295V213.568H258.327V235.072H295.479V244H249.015V174.592ZM324.408 219.04L333.912 204.256H342.936L327.672 225.568L324.408 219.04ZM344.472 244H333.72L303.48 204.256H314.52L344.472 244ZM323.448 229.216L312.984 244H303.96L319.128 223.264L323.448 229.216ZM377.481 244.96C374.473 244.96 371.561 244.256 368.745 242.848C365.993 241.44 363.849 239.552 362.313 237.184L362.889 234.4V263.104H354.057V203.68H361.737L362.985 213.856L362.025 211.072C363.945 208.64 366.377 206.624 369.321 205.024C372.265 203.424 375.561 202.624 379.209 202.624C382.921 202.624 386.249 203.52 389.193 205.312C392.201 207.104 394.569 209.6 396.297 212.8C398.025 216 398.889 219.744 398.889 224.032C398.889 228.32 397.961 232.032 396.105 235.168C394.249 238.304 391.689 240.736 388.425 242.464C385.225 244.128 381.577 244.96 377.481 244.96ZM375.753 237.856C378.313 237.856 380.649 237.28 382.761 236.128C384.937 234.912 386.665 233.28 387.945 231.232C389.225 229.12 389.865 226.752 389.865 224.128C389.865 221.44 389.257 219.072 388.041 217.024C386.825 214.912 385.193 213.248 383.145 212.032C381.161 210.816 378.921 210.208 376.425 210.208C374.121 210.208 372.041 210.656 370.185 211.552C368.329 212.448 366.793 213.696 365.577 215.296C364.361 216.832 363.497 218.624 362.985 220.672V227.296C363.305 229.344 364.073 231.168 365.289 232.768C366.505 234.368 368.009 235.616 369.801 236.512C371.657 237.408 373.641 237.856 375.753 237.856ZM418.932 204.256L419.796 215.776L419.316 214.24C420.34 211.808 421.812 209.76 423.732 208.096C425.716 206.368 427.764 205.056 429.876 204.16C432.052 203.2 433.94 202.72 435.54 202.72L435.06 211.552C432.052 211.36 429.396 211.936 427.092 213.28C424.852 214.624 423.06 216.416 421.716 218.656C420.436 220.896 419.796 223.296 419.796 225.856V244H410.964V204.256H418.932ZM463.802 244.96C459.258 244.96 455.354 244.064 452.09 242.272C448.826 240.416 446.298 237.92 444.506 234.784C442.778 231.584 441.914 227.936 441.914 223.84C441.914 219.936 442.906 216.384 444.89 213.184C446.874 209.984 449.53 207.424 452.858 205.504C456.186 203.584 459.898 202.624 463.994 202.624C469.242 202.624 473.594 204.16 477.05 207.232C480.506 210.304 482.842 214.528 484.058 219.904L451.322 231.424L449.21 226.144L476.09 216.352L474.17 217.6C473.402 215.488 472.122 213.664 470.33 212.128C468.538 210.528 466.202 209.728 463.322 209.728C460.89 209.728 458.714 210.336 456.794 211.552C454.874 212.704 453.37 214.304 452.282 216.352C451.194 218.4 450.65 220.736 450.65 223.36C450.65 226.112 451.226 228.544 452.378 230.656C453.53 232.704 455.098 234.336 457.082 235.552C459.13 236.704 461.434 237.28 463.994 237.28C465.722 237.28 467.386 236.96 468.986 236.32C470.65 235.68 472.186 234.848 473.594 233.824L477.722 240.448C475.738 241.792 473.498 242.88 471.002 243.712C468.57 244.544 466.17 244.96 463.802 244.96ZM506.381 244.768C503.565 244.768 500.813 244.288 498.125 243.328C495.501 242.304 493.325 240.8 491.597 238.816L495.341 233.632C497.005 235.232 498.701 236.448 500.429 237.28C502.221 238.048 503.981 238.432 505.709 238.432C506.989 238.432 508.173 238.272 509.261 237.952C510.349 237.632 511.213 237.12 511.853 236.416C512.557 235.648 512.909 234.624 512.909 233.344C512.909 231.936 512.429 230.816 511.469 229.984C510.573 229.152 509.389 228.48 507.917 227.968C506.509 227.456 505.005 226.976 503.405 226.528C500.141 225.44 497.645 223.936 495.917 222.016C494.189 220.096 493.325 217.76 493.325 215.008C493.325 212.896 493.837 210.944 494.861 209.152C495.949 207.296 497.517 205.792 499.565 204.64C501.677 203.488 504.269 202.912 507.341 202.912C510.093 202.912 512.557 203.264 514.733 203.968C516.909 204.608 518.957 205.696 520.877 207.232L517.325 212.8C516.173 211.584 514.797 210.688 513.197 210.112C511.597 209.536 510.157 209.216 508.877 209.152C507.789 209.088 506.733 209.248 505.709 209.632C504.749 210.016 503.949 210.56 503.309 211.264C502.669 211.968 502.349 212.8 502.349 213.76C502.349 215.104 502.797 216.192 503.693 217.024C504.589 217.856 505.741 218.528 507.149 219.04C508.621 219.488 510.061 219.968 511.469 220.48C513.453 221.056 515.213 221.824 516.749 222.784C518.285 223.744 519.501 224.928 520.397 226.336C521.357 227.744 521.837 229.504 521.837 231.616C521.837 233.984 521.261 236.192 520.109 238.24C519.021 240.224 517.325 241.824 515.021 243.04C512.781 244.192 509.901 244.768 506.381 244.768ZM545.475 244.768C542.659 244.768 539.907 244.288 537.219 243.328C534.595 242.304 532.419 240.8 530.691 238.816L534.435 233.632C536.099 235.232 537.795 236.448 539.523 237.28C541.315 238.048 543.075 238.432 544.803 238.432C546.083 238.432 547.267 238.272 548.355 237.952C549.443 237.632 550.307 237.12 550.947 236.416C551.651 235.648 552.003 234.624 552.003 233.344C552.003 231.936 551.523 230.816 550.562 229.984C549.667 229.152 548.483 228.48 547.011 227.968C545.603 227.456 544.099 226.976 542.499 226.528C539.235 225.44 536.739 223.936 535.011 222.016C533.283 220.096 532.419 217.76 532.419 215.008C532.419 212.896 532.931 210.944 533.955 209.152C535.043 207.296 536.611 205.792 538.659 204.64C540.771 203.488 543.363 202.912 546.435 202.912C549.187 202.912 551.651 203.264 553.827 203.968C556.003 204.608 558.051 205.696 559.971 207.232L556.419 212.8C555.267 211.584 553.891 210.688 552.291 210.112C550.691 209.536 549.251 209.216 547.971 209.152C546.883 209.088 545.827 209.248 544.803 209.632C543.843 210.016 543.043 210.56 542.403 211.264C541.763 211.968 541.443 212.8 541.443 213.76C541.443 215.104 541.891 216.192 542.787 217.024C543.683 217.856 544.835 218.528 546.243 219.04C547.715 219.488 549.155 219.968 550.562 220.48C552.547 221.056 554.307 221.824 555.843 222.784C557.379 223.744 558.595 224.928 559.491 226.336C560.451 227.744 560.931 229.504 560.931 231.616C560.931 233.984 560.355 236.192 559.203 238.24C558.115 240.224 556.419 241.824 554.115 243.04C551.875 244.192 548.995 244.768 545.475 244.768ZM569.976 223.744C569.976 219.776 570.904 216.192 572.76 212.992C574.68 209.792 577.304 207.264 580.632 205.408C583.96 203.552 587.736 202.624 591.96 202.624C596.312 202.624 600.12 203.552 603.384 205.408C606.648 207.264 609.176 209.792 610.968 212.992C612.76 216.192 613.656 219.776 613.656 223.744C613.656 227.712 612.76 231.328 610.968 234.592C609.176 237.792 606.616 240.32 603.288 242.176C600.024 244.032 596.216 244.96 591.864 244.96C587.64 244.96 583.864 244.096 580.536 242.368C577.272 240.576 574.68 238.112 572.76 234.976C570.904 231.776 569.976 228.032 569.976 223.744ZM578.904 223.84C578.904 226.4 579.48 228.736 580.632 230.848C581.784 232.896 583.32 234.528 585.24 235.744C587.224 236.96 589.4 237.568 591.768 237.568C594.264 237.568 596.472 236.96 598.392 235.744C600.376 234.528 601.912 232.896 603 230.848C604.088 228.736 604.632 226.4 604.632 223.84C604.632 221.28 604.088 218.976 603 216.928C601.912 214.816 600.376 213.152 598.392 211.936C596.472 210.656 594.264 210.016 591.768 210.016C589.336 210.016 587.128 210.656 585.144 211.936C583.224 213.216 581.688 214.912 580.536 217.024C579.448 219.072 578.904 221.344 578.904 223.84Z" fill="white"/>
<path d="M392.659 276.352H411.763V340H397.747V289.792H392.659V276.352ZM467.707 276.352L443.995 340H428.443L448.123 288.16L452.635 289.792H424.699V276.352H467.707Z" fill="#44AA7C"/>
<defs>
<clipPath id="clip0_515_5">
<rect width="170.3" height="153.28" fill="white" transform="translate(318 0.898193) rotate(2.82382)"/>
</clipPath>
<clipPath id="clip1_515_5">
<rect width="191" height="197" fill="white" transform="translate(0 172)"/>
</clipPath>
<clipPath id="clip2_515_5">
<rect width="132.26" height="197.41" fill="white" transform="translate(666 172)"/>
</clipPath>
</defs>
</svg>
